{"title":"Ludacris Ft. Wiz Khalifa, Jeremih &amp; Cashmere Cat - Party Gir","uid":10090258,"size":123711479,"categoryP":"video","categoryS":"music_videos","magnet":"?xt=urn:btih:1294e17cd6e271ca3ae1121bb40e65f329ee89cf&amp;dn=Ludacris+Ft.+Wiz+Khalifa%2C+Jeremih+%26amp%3B+Cashmere+Cat+-+Party+Gir&amp;tr=udp%3A%2F%2Ftracker.openbittorrent.com%3A80&amp;tr=udp%3A%2F%2Fopen.demonii.com%3A1337&amp;tr=udp%3A%2F%2Ftracker.coppersurfer.tk%3A6969&amp;tr=udp%3A%2F%2Fexodus.desync.com%3A6969","seeders":13,"leechers":0,"uploader":"Sbyky","files":1,"time":1399181471,"description":"\n\nGeneral\nComplete name                            : Ludacris Ft. Wiz Khalifa, Jeremih &amp; Cashmere Cat - Party Girls [Explicit] 1080p [Sbyky].mp4\nFormat                                   : MPEG-4\nFormat profile                           : Base Media\nCodec ID                                 : isom\nFile size                                : 118 MiB\nDuration                                 : 4mn 18s\nOverall bit rate mode                    : Variable\nOverall bit rate                         : 3 828 Kbps\nEncoded date                             : UTC 2014-04-28 13:54:51\nTagged date                              : UTC 2014-04-28 13:54:51\n\nVideo\nID                                       : 1\nFormat                                   : AVC\nFormat/Info                              : Advanced Video Codec\nFormat profile                           : &lt;a class=&quot;__cf_email__&quot; href=&quot;/cdn-cgi/l/email-protection&quot; data-cfemail=&quot;aee6c7c9c6eee29a809e&quot;&gt;[email&amp;#160;protected]&lt;/a&gt;&lt;script cf-hash='f9e31' type=&quot;text/javascript&quot;&gt;\n/* &lt;![CDATA[ */!function(){try{var t=&quot;currentScript&quot;in document?document.currentScript:function(){for(var t=document.getElementsByTagName(&quot;script&quot;),e=t.length;e--;)if(t[e].getAttribute(&quot;cf-hash&quot;))return t[e]}();if(t&amp;&amp;t.previousSibling){var e,r,n,i,c=t.previousSibling,a=c.getAttribute(&quot;data-cfemail&quot;);if(a){for(e=&quot;&quot;,r=parseInt(a.substr(0,2),16),n=2;a.length-n;n+=2)i=parseInt(a.substr(n,2),16)^r,e+=String.fromCharCode(i);e=document.createTextNode(e),c.parentNode.replaceChild(e,c)}}}catch(u){}}();/* ]]&gt; */&lt;/script&gt;\nFormat settings, CABAC                   : Yes\nFormat settings, ReFrames                : 2 frames\nCodec ID                                 : avc1\nCodec ID/Info                            : Advanced Video Coding\nDuration                                 : 4mn 18s\nBit rate                                 : 3 698 Kbps\nWidth                                    : 1 920 pixels\nHeight                                   : 1 080 pixels\nDisplay aspect ratio                     : 16:9\nFrame rate mode                          : Variable\nFrame rate                               : 23.976 fps\nMinimum frame rate                       : 23.974 fps\nMaximum frame rate                       : 24.122 fps\nColor space                              : YUV\nChroma subsampling                       : 4:2:0\nBit depth                                : 8 bits\nScan type                                : Progressive\nBits/(Pixel*Frame)                       : 0.074\nStream size                              : 114 MiB (97%)\nEncoded date                             : UTC 2014-04-28 13:54:51\nTagged date                              : UTC 2014-04-28 13:54:51\n\nAudio\nID                                       : 2\nFormat                                   : AAC\nFormat/Info                              : Advanced Audio Codec\nFormat profile                           : LC\nCodec ID                                 : 40\nDuration                                 : 4mn 18s\nBit rate mode                            : Variable\nBit rate                                 : 126 Kbps\nChannel(s)                               : 2 channels\nChannel positions                        : Front: L R\nSampling rate                            : 44.1 KHz\nCompression mode                         : Lossy\nStream size                              : 3.87 MiB (3%)\nEncoded date                             : UTC 2014-04-28 13:55:37\nTagged date                              : UTC 2014-04-28 13:55:37\n\nShared By Sbyky\n","torrent":{"xt":"urn:btih:1294e17cd6e271ca3ae1121bb40e65f329ee89cf","amp;dn":"Ludacris+Ft.+Wiz+Khalifa%2C+Jeremih+%26amp%3B+Cashmere+Cat+-+Party+Gir","amp;tr":["udp%3A%2F%2Ftracker.openbittorrent.com%3A80","udp%3A%2F%2Fopen.demonii.com%3A1337","udp%3A%2F%2Ftracker.coppersurfer.tk%3A6969","udp%3A%2F%2Fexodus.desync.com%3A6969"],"infoHash":"1294e17cd6e271ca3ae1121bb40e65f329ee89cf","infoHashBuffer":{"type":"Buffer","data":[18,148,225,124,214,226,113,202,58,225,18,27,180,14,101,243,41,238,137,207]},"announce":[],"urlList":[]}}